<?xml version="1.0" encoding="UTF-8" standalone="yes"?>
<svg xmlns="http://www.w3.org/2000/svg" version="1.1" viewBox="0 0 500 500" width="500" height="500">
  <defs>
    <linearGradient x1="0" x2="1" id="Gradient" gradientUnits="userSpaceOnUse">
      <stop offset="0" stop-color="#00bfc0"/>
      <stop offset="1" stop-color="#3399cc"/>
    </linearGradient>
    <linearGradient id="bg" href="#Gradient" gradientTransform="translate(420.7532 -45.753175) rotate(120) scale(683.0127)"/>
    <mask id="arch">
      <g>
        <rect x="0" y="0" rx="50" ry="50" width="500" height="500" fill="#fff"/>
        <rect x="0" y="0" width="500" height="500" fill="#fff"/>
        <g transform="translate(-4 0)">
        <path d="M 401.3205 389.5833 L 401.3205 236.92416 L 448.6371 324.98065 L 448.6371 424.4791 C 434.5178 411.29355 418.6372 399.56503 401.3205 389.5833 Z M 330.63545 360.98246 L 330.63545 105.37797 L 364.00016 167.46749 L 364.00016 371.6919 C 353.24244 367.4915 342.10155 363.90453 330.63545 360.98246 Z M 269.66163 352.10517 L 269.66163 73.740745 L 293.31992 65.34 L 293.31992 354.01457 C 285.539 353.07597 277.647 352.4352 269.66163 352.10517 Z M 208.68137 355.74045 L 208.68137 128.0091 L 232.33966 89.7936 L 232.33966 352.8538 C 224.343 353.50744 216.45262 354.4734 208.68137 355.74045 Z M 137.9963 376.7713 L 137.9963 242.1871 L 171.3594 188.29548 L 171.3594 364.36497 C 159.85466 367.84087 148.71216 371.99294 137.9963 376.7713 Z M 53.3629 436.66 L 53.3629 378.8948 L 100.67915 302.46543 L 100.67915 397.03096 C 83.07832 408.4713 67.17712 421.7953 53.3629 436.66 Z" fill="black"/>
        </g>
      </g>
    </mask>
  </defs>
  <g id="" stroke-opacity="1" fill-opacity="1" stroke-dasharray="none" stroke="none" fill="none">
    <g mask="url(#arch)">
      <rect x="0" y="0" width="500" height="500" fill="url(#bg)" />
    </g>
  </g>
</svg>
